<svg width="1024" height="1024" viewBox="0 0 1024 1024" xmlns="http://www.w3.org/2000/svg">
  <defs>
    <linearGradient id="bgGradient" x1="0%" y1="0%" x2="100%" y2="100%">
      <stop offset="0%" style="stop-color:#F5F5DC;stop-opacity:1" />
      <stop offset="100%" style="stop-color:#D4A5A5;stop-opacity:1" />
    </linearGradient>
    <clipPath id="circleClip">
      <circle cx="512" cy="512" r="327.68000000000006"/>
    </clipPath>
  </defs>
  
  <!-- Background -->
  <rect width="1024" height="1024" rx="204.8" fill="url(#bgGradient)"/>
  
  <!-- Photo circle (if photo exists) -->
  <image href="public\icons\source\new-app-flower-icon.png" x="102.4" y="102.4" width="655.3600000000001" height="655.3600000000001" clip-path="url(#circleClip)"/>
  
  <!-- Decorative elements -->
  <circle cx="819.2" cy="204.8" r="122.88" fill="#9CAF88" opacity="0.6"/>
  <circle cx="204.8" cy="819.2" r="98.304" fill="#D4A5A5" opacity="0.7"/>
  
  <!-- Heart symbol -->
  <path d="M512 870.4 C512 870.4, 409.6 768, 358.4 768 C307.2 768, 307.2 819.2, 307.2 870.4 C307.2 921.6, 512 972.8, 512 972.8 C512 972.8, 716.8 921.6, 716.8 870.4 C716.8 819.2, 716.8 768, 665.6 768 C614.4 768, 512 870.4, 512 870.4 Z" 
        fill="#9CAF88" opacity="0.8"/>
</svg>